# xmcd
#
# Track frame offsets:
#	150
#	11515
#	24785
#	35217
#	45870
#	53202
#	64564
#	71645
#	82195
#	93402
#	105922
#	117005
#	129090
#	139825
#	149365
#	160320
#	176110
#	187800
#	206582
#	213945
#	228490
#	249145
#	263200
#	281317
#	292132
#	306390
#	315452
#
# Disc length: 4435 seconds
#
# Revision: 0
# Processed by: cddbd v1.5PL3 Copyright (c) Steve Scherf et al.
# Submitted via: dBpowerAMP V4.0
#
DISCID=7711511b
DTITLE=Billy Childish - Crimes Against Music
DYEAR=1900
DGENRE=
TTITLE0=I've Got Everything Indeed
TTITLE1=Strange Words
TTITLE2=I Love That Girl Ammonia
TTITLE3=Get Out Of Here Pretty Girl
TTITLE4=Greatest Lover In The World
TTITLE5=Coming Upside Your Head
TTITLE6=Mister Elisabeth
TTITLE7=I Remember
TTITLE8=Why Don't You Try My Love?
TTITLE9=Burn And Blind Me
TTITLE10=Not Many Of My Kind
TTITLE11=This Whole Wide World
TTITLE12=Grinning In Your Face
TTITLE13=Yellow Skin Baby
TTITLE14=Bourgeois Blues
TTITLE15=Cosmetic Women
TTITLE16=Troubled Times
TTITLE17=I Love My Woman
TTITLE18=Bottle Up And Go
TTITLE19=John Hardy
TTITLE20=Ballad Of Hollis Brown
TTITLE21=Cowboys Are Square
TTITLE22=I Feel So Bad
TTITLE23=I'm Hurting
TTITLE24=Iodine In My Coffee
TTITLE25=Cold Chills
TTITLE26=Crimes Of The Future
EXTD=
EXTT0=
EXTT1=
EXTT2=
EXTT3=
EXTT4=
EXTT5=
EXTT6=
EXTT7=
EXTT8=
EXTT9=
EXTT10=
EXTT11=
EXTT12=
EXTT13=
EXTT14=
EXTT15=
EXTT16=
EXTT17=
EXTT18=
EXTT19=
EXTT20=
EXTT21=
EXTT22=
EXTT23=
EXTT24=
EXTT25=
EXTT26=
PLAYORDER=
